# xmcd
#
# Track frame offsets:
#	150
#	12697
#	25622
#	36257
#	50152
#	61500
#	76173
#	88371
#	103992
#	116116
#	130078
#	145689
#	161559
#	171971
#	183059
#	198267
#	213353
#	225551
#	238612
#
# Disc length: 3371 seconds
#
# Revision: 2
# Processed by: cddbd v1.5.1PL2 Copyright (c) Steve Scherf et al.
# Submitted via: audiograbber 1.83.01
#
DISCID=000d2913
DTITLE=Diverse - Early Love Songs
DYEAR=1900
DGENRE=
TTITLE0=Andy Williams - Moon River
TTITLE1=unbekannt - Blue Velvet
TTITLE2=unbekann - To Know You Is To Love You
TTITLE3=Connie Francis - Dont't Break
TTITLE4=Fats Domino - Blueberry Hill
TTITLE5=Frankie Laine - Jezebel
TTITLE6=Guy Mitchell - Heartaches By T
TTITLE7=Johnny Nash - Cupid
TTITLE8=Johnny Ray - Just Walking In T
TTITLE9=Jonny Ray - Cry
TTITLE10=Marilyn Monroe - Bye Bye Baby
TTITLE11=Marilyn Monroe - Diamonds Are
TTITLE12=Neil Sedaka - Breaking Up Is H
TTITLE13=Paul Anka - Diana
TTITLE14=Peggy Lee - Fever
TTITLE15=Perry Como - And I Love You So
TTITLE16=The Platters - Smoke Gets In Y
TTITLE17=Albert West - Ginny Come Latel
TTITLE18=Andy Willams - As Time Goes By
EXTD=
EXTT0=
EXTT1=
EXTT2=
EXTT3=
EXTT4=
EXTT5=
EXTT6=
EXTT7=
EXTT8=
EXTT9=
EXTT10=
EXTT11=
EXTT12=
EXTT13=
EXTT14=
EXTT15=
EXTT16=
EXTT17=
EXTT18=
PLAYORDER=
